<?xml version="1.0" encoding="UTF-8"?>
<svg id="Layer_2" data-name="Layer 2" xmlns="http://www.w3.org/2000/svg" xmlns:xlink="http://www.w3.org/1999/xlink" viewBox="0 0 1135.6 304.77">
  <defs>
    <style>
      .cls-1, .cls-2 {
        fill: #d9d9d9;
        font-family: JetBrainsMonoNLNFP-Bold, 'JetBrainsMonoNL Nerd Font Propo';
      }

      .cls-1, .cls-2, .cls-3 {
        font-size: 190.1px;
        font-weight: 700;
      }

      .cls-4 {
        letter-spacing: -.22em;
      }

      .cls-4, .cls-5, .cls-6, .cls-3 {
        fill: #ff9100;
      }

      .cls-4, .cls-6 {
        font-family: JetBrainsMonoNLNFP-Italic, 'JetBrainsMonoNL Nerd Font Propo';
        font-size: 200px;
        font-style: italic;
        opacity: .8;
      }

      .cls-7 {
        fill: url(#linear-gradient);
      }

      .cls-6 {
        letter-spacing: -.1em;
      }

      .cls-2 {
        letter-spacing: -.14em;
      }

      .cls-3 {
        font-family: IosevkaNFP-Bold, 'Iosevka Nerd Font Propo';
      }
    </style>
    <linearGradient id="linear-gradient" x1="188.42" y1="-63.22" x2="793.59" y2="360.52" gradientUnits="userSpaceOnUse">
      <stop offset="0" stop-color="#332a1f" stop-opacity="0"/>
      <stop offset="1" stop-color="#452700"/>
    </linearGradient>
  </defs>
  <g id="Layer_1-2" data-name="Layer 1">
    <g>
      <polygon class="cls-7" points="954.76 0 144.15 0 0 278.22 851.21 278.22 954.76 0"/>
      <text transform="translate(144.05 190.15)"><tspan><tspan class="cls-1" x="0" y="0">m</tspan><tspan class="cls-3" x="114.06" y="0">0</tspan><tspan class="cls-1" x="209.1" y="0">r</tspan><tspan class="cls-2" x="323.16" y="0">t</tspan><tspan class="cls-4" x="410.03" y="0">.</tspan><tspan class="cls-6" x="485.63" y="0">sh</tspan></tspan></text>
      <g>
        <path class="cls-5" d="M851.17,278.22L954.76,0h38.48l-103.59,278.22h-38.48Z"/>
        <path class="cls-5" d="M1003,229.09v-34.04l85.83-39.66c3.95-1.78,7.84-3.26,11.69-4.44,3.85-1.18,6.85-2.07,9.03-2.66-2.17-.39-5.23-1.18-9.18-2.37-3.95-1.18-7.8-2.56-11.54-4.14l-85.83-39.96v-34.63l132.6,62.45v37l-132.6,62.45Z"/>
      </g>
    </g>
  </g>
</svg>